<?xml version="1.0" encoding="UTF-8" standalone="no"?>
<!DOCTYPE svg PUBLIC "-//W3C//DTD SVG 1.1//EN" "http://www.w3.org/Graphics/SVG/1.1/DTD/svg11.dtd">
<svg width="100%" height="100%" viewBox="0 0 584 403" version="1.1" xmlns="http://www.w3.org/2000/svg" xmlns:xlink="http://www.w3.org/1999/xlink" xml:space="preserve" xmlns:serif="http://www.serif.com/" style="fill-rule:evenodd;clip-rule:evenodd;stroke-linejoin:round;stroke-miterlimit:2;">
    <g transform="matrix(1,0,0,1,-112.502,-879.185)">
        <g transform="matrix(1,0,0,0.765355,-4.44089e-16,389.719)">
            <rect x="112.502" y="781.77" width="583.25" height="56.514" style="fill:rgb(160,160,160);"/>
        </g>
        <g transform="matrix(1,0,0,0.765355,0,280.853)">
            <rect x="112.502" y="781.77" width="583.25" height="56.514" style="fill:rgb(160,160,160);"/>
        </g>
        <g transform="matrix(1,0,0,0.765355,-4.44089e-16,459.404)">
            <rect x="112.502" y="781.77" width="583.25" height="56.514" style="fill:rgb(160,160,160);"/>
        </g>
        <g transform="matrix(0.671637,0,0,0.765355,36.9414,526.214)">
            <rect x="112.502" y="781.77" width="583.25" height="56.514" style="fill:rgb(160,160,160);"/>
        </g>
        <g transform="matrix(0.220831,0,0,0.765355,87.6578,639.698)">
            <rect x="112.502" y="781.77" width="583.25" height="56.514" style="fill:rgb(160,160,160);"/>
        </g>
        <g transform="matrix(0.376026,0,0,0.765355,233.024,639.698)">
            <rect x="112.502" y="781.77" width="583.25" height="56.514" style="fill:rgb(160,160,160);"/>
        </g>
    </g>
</svg>
