<?xml version="1.0" encoding="UTF-8" standalone="no"?>
<!DOCTYPE svg PUBLIC "-//W3C//DTD SVG 1.1//EN" "http://www.w3.org/Graphics/SVG/1.1/DTD/svg11.dtd">
<svg width="100%" height="100%" viewBox="0 0 172 140" version="1.1" xmlns="http://www.w3.org/2000/svg" xmlns:xlink="http://www.w3.org/1999/xlink" xml:space="preserve" xmlns:serif="http://www.serif.com/" style="fill-rule:evenodd;clip-rule:evenodd;stroke-linejoin:round;stroke-miterlimit:2;">
    <g transform="matrix(1,0,0,1,-282.321,-396.307)">
        <path id="path1" style="fill:rgb(42,169,224);fill-rule:nonzero;" d="M453.826,412.806C447.516,415.605 440.734,417.496 433.617,418.347C440.882,413.992 446.461,407.097 449.088,398.88C442.289,402.913 434.759,405.84 426.743,407.418C420.326,400.58 411.181,396.307 401.06,396.307C381.629,396.307 365.874,412.061 365.874,431.493C365.874,434.25 366.185,436.936 366.785,439.511C337.542,438.044 311.615,424.036 294.26,402.747C291.232,407.944 289.496,413.988 289.496,420.436C289.496,432.644 295.708,443.414 305.149,449.724C299.382,449.541 293.956,447.958 289.212,445.323C289.208,445.469 289.208,445.617 289.208,445.765C289.208,462.813 301.337,477.033 317.434,480.268C314.481,481.072 311.373,481.502 308.164,481.502C305.897,481.502 303.693,481.281 301.544,480.871C306.022,494.849 319.016,505.022 334.414,505.305C322.371,514.743 307.2,520.369 290.714,520.369C287.874,520.369 285.073,520.201 282.321,519.876C297.892,529.861 316.388,535.686 336.258,535.686C400.978,535.686 436.371,482.07 436.371,435.572C436.371,434.046 436.337,432.529 436.269,431.019C443.143,426.059 449.108,419.863 453.825,412.806L453.826,412.806Z"/>
    </g>
</svg>